<svg width="300" height="301" viewBox="0 0 300 301" fill="none" xmlns="http://www.w3.org/2000/svg">
<path fill-rule="evenodd" clip-rule="evenodd" d="M241.47 260.161C251.64 260.161 259.886 251.915 259.886 241.745C259.886 231.575 251.64 223.33 241.47 223.605H68.86L40 260.161H241.47Z" fill="#096FF6"/>
<path fill-rule="evenodd" clip-rule="evenodd" d="M241.47 260.161C251.64 260.161 259.886 251.915 259.886 241.745C259.886 231.575 251.64 223.33 241.47 223.605H68.86L40 260.161H241.47Z" fill="#E83C78"/>
<path fill-rule="evenodd" clip-rule="evenodd" d="M88.3749 199.417L117.235 162.861V162.586H168.908C179.078 162.586 187.323 170.832 187.323 181.002C187.323 191.171 179.078 199.417 168.908 199.417H88.3749Z" fill="#8F52F7"/>
<path fill-rule="evenodd" clip-rule="evenodd" d="M216.733 100.469C226.903 100.469 235.149 108.714 235.149 118.884C235.149 129.054 227.178 137.299 217.008 137.299H136.475L165.335 100.469H216.733Z" fill="#625CF7"/>
<path fill-rule="evenodd" clip-rule="evenodd" d="M241.47 40C251.64 40 259.886 48.2457 259.886 58.4154C259.886 68.5851 251.64 76.8309 241.47 76.8309H40L68.86 40H241.47Z" fill="#096FF6"/>
</svg>
