<svg width="300" height="301" viewBox="0 0 300 301" fill="none" xmlns="http://www.w3.org/2000/svg">
<path d="M259.886 241.745C259.886 251.915 251.64 260.161 241.47 260.161H40L68.86 223.605H241.47C251.64 223.33 259.886 231.575 259.886 241.745ZM117.235 162.861L88.3749 199.417H168.908C179.078 199.417 187.323 191.171 187.323 181.002C187.323 170.832 179.078 162.586 168.908 162.586H117.235V162.861ZM259.886 58.4154C259.886 48.2457 251.64 40 241.47 40H68.86L40 76.8309H241.47C251.64 76.8309 259.886 68.5851 259.886 58.4154ZM235.149 118.884C235.149 108.714 226.903 100.469 216.733 100.469H165.335L136.475 137.299H217.008C227.178 137.299 235.149 129.054 235.149 118.884Z" fill="url(#paint0_linear_28_16)"/>
<defs>
<linearGradient id="paint0_linear_28_16" x1="150.017" y1="259.965" x2="150.017" y2="40.0797" gradientUnits="userSpaceOnUse">
<stop stop-color="#E83C78"/>
<stop offset="1" stop-color="#096FF6"/>
</linearGradient>
</defs>
</svg>
